<svg id="Layer_1" data-name="Layer 1" xmlns="http://www.w3.org/2000/svg" viewBox="-5 -5 35 30"><title>karate</title><path id="path0" d="M0,12.65V25.34H22.8V0H0v12.7M12.55,2.14c.34.08.34.11.22.46s-.13.25-.13,1.49a7.44,7.44,0,0,1-.06,1.45l-.22.07c-.38.11-.38.11-.42.6a3.09,3.09,0,0,0,0,.39s.41.11.89.21l.88.21.48.29.47.28.35.64.35.63s.28-.1.6-.25.6-.24.6-.24l.29,2.19s-2,.67-2,.67A7.91,7.91,0,0,1,14,11a6.41,6.41,0,0,0-.73-.24s0,.46,0,1,0,1,0,1l-.35.31-.38.36h-.28c-.16,0-.86,0-1.58,0l-1.3,0L8.94,13c-.22-.17-.48-.31-.54-.38s-.16,0,0-.46c.06-.18.16-.36.16-.39s.57-.25,1.55-.64,1.52-.6,1.49-.6l-3.2-.11a2.66,2.66,0,0,1-1.3-.7S7,7.7,7,7.66a4.7,4.7,0,0,1,1.23-1l.51-.32.7,0c.6,0,.69,0,.76,0s.38-.18.75-.36l.7-.31-.66,0a6.67,6.67,0,0,0-.7,0,3,3,0,0,1-.47-.74s-.07-.42-.13-.81l-.1-.74.26-.57c.22-.42.31-.56.35-.56l.85-.08a4.62,4.62,0,0,1,1.46,0m5.82,4.71a1.84,1.84,0,0,1,.41.1,5.33,5.33,0,0,1,.09,1.21v.1L18,8.69c-.48.21-.89.42-.92.42a4.34,4.34,0,0,1-.47-.74l.31-.14a2.64,2.64,0,0,0,.29-.15V7.7c0-.22,0-.39,0-.43A.92.92,0,0,0,17.35,7l.16-.21h.32a2.08,2.08,0,0,1,.54,0m-.83.74c0,.07,0,.25,0,.39a1.7,1.7,0,0,0,0,.32,7,7,0,0,0,.73-.25s-.76-.57-.8-.57v.11M12.48,9.32c-.19.39-.38.85-.44,1l-.13.25.38-.32.38-.32V9.78a3,3,0,0,1,.1-.6c.12-.71.12-.71-.29.14M8.31,14.13l.88.28.48.14a1.4,1.4,0,0,1-.13.25L9.38,15l-.22.5L9,16.07h.6a2.22,2.22,0,0,0,.6,0,3.64,3.64,0,0,0,0-.46c0-.42,0-.46.1-.5s.19-.14.35-.28l.31-.25.32.25.32.25,0,.49c0,.29,0,.5,0,.5h1l-.31-.71c-.16-.39-.32-.71-.32-.74l.44-.07a3.71,3.71,0,0,0,.76-.14,2.09,2.09,0,0,1,.35-.11s.38.46.82,1A16.94,16.94,0,0,0,16,17.21c1.17,1.23,1.36,1.48,1.51,2.19A9.11,9.11,0,0,0,18.11,21a8.41,8.41,0,0,1,.48,1.24c.06.21.09.18-.19.35l-.19.15c0,.07.25.21,1.07.49,1.08.39,1.24.53,1,.81s-.32.22-1.33.22-1.33,0-1.46-.18-.13,0,.32-.74c.22-.36.38-.64.38-.64l-.79.07-.76.07-.6-.07-.61-.07-.82-1.84L13.81,19l-1.2-.85-1.11-.88H11c-.28,0-.56,0-.63,0H10.2l-1,1.24-1,1.24L6.94,21.13,5.71,22.47l-.38,0L5,22.58l-.79-.11c-.41-.07-.79-.1-.79-.1s.19.28.41.63.41.64.41.64a1.68,1.68,0,0,1-.16.28l-.15.25H3.12c-1.14,0-1.17,0-1-.46a.94.94,0,0,1,.42-.49c.53-.46.72-.64.75-.75s0-.07-.22-.24A1.84,1.84,0,0,1,2.83,22c0-.11,2.63-4.1,3.07-4.7.25-.32.67-.92.95-1.31l.47-.71.19-.49a3.37,3.37,0,0,1,.23-.6c.09-.22,0-.22.57,0" transform="translate(-0.02 0.05)"/></svg>