<?xml version="1.0" encoding="UTF-8" standalone="no"?>
<!-- Created with Inkscape (http://www.inkscape.org/) -->

<svg
   width="400"
   height="400"
   viewBox="0 0 400.00001 400.00001"
   version="1.1"
   id="svg5"
   inkscape:version="1.1.2 (b8e25be8, 2022-02-05)"
   sodipodi:docname="karate-logo-round.svg"
   xmlns:inkscape="http://www.inkscape.org/namespaces/inkscape"
   xmlns:sodipodi="http://sodipodi.sourceforge.net/DTD/sodipodi-0.dtd"
   xmlns="http://www.w3.org/2000/svg"
   xmlns:svg="http://www.w3.org/2000/svg">
  <sodipodi:namedview
     id="namedview7"
     pagecolor="#ffffff"
     bordercolor="#666666"
     borderopacity="1.0"
     inkscape:pageshadow="2"
     inkscape:pageopacity="0.0"
     inkscape:pagecheckerboard="0"
     inkscape:document-units="px"
     showgrid="true"
     units="px"
     inkscape:zoom="1.1852735"
     inkscape:cx="283.90072"
     inkscape:cy="291.07206"
     inkscape:window-width="1728"
     inkscape:window-height="990"
     inkscape:window-x="0"
     inkscape:window-y="38"
     inkscape:window-maximized="0"
     inkscape:current-layer="svgg">
    <inkscape:grid
       type="xygrid"
       id="grid9" />
  </sodipodi:namedview>
  <defs
     id="defs2" />
  <g
     inkscape:label="Layer 1"
     inkscape:groupmode="layer"
     id="layer1">
    <g
       id="g832"
       transform="matrix(0.92489255,0,0,0.92489255,53.095872,-39.550895)">
      <circle
         style="fill:#000000;stroke-width:2.16242"
         id="path727"
         cx="158.83372"
         cy="259.00403"
         r="194.6172"
         inkscape:label="circle" />
      <g
         style="display:block;fill:#ffffff"
         id="g88"
         transform="matrix(0.77661746,0,0,0.77661746,22.093596,108.22785)">
        <g
           id="svgg"
           style="display:inline;fill:#ffffff">
          <path
             id="path0"
             d="m 198.3341,7.1065801 c 6.07956,1.1691452 6.49695,1.9434468 3.96689,7.3645879 -2.51879,5.396527 -2.39162,4.176104 -2.47367,23.671085 -0.0699,16.358799 -0.41433,22.573728 -1.30246,23.460841 -0.0903,0.09128 -1.88192,0.616365 -3.98126,1.167095 -6.94307,1.821403 -6.77179,1.603983 -7.60045,9.674161 -0.35896,3.487949 -0.62868,6.363636 -0.59996,6.392351 0.0286,0.0277 7.15025,1.545528 15.8255,3.373087 l 15.77423,3.321801 8.55322,4.819134 8.55425,4.819131 6.27235,10.321286 c 3.45002,5.67755 6.32364,10.32131 6.38517,10.32131 0.0627,0 4.95862,-1.85833 10.88023,-4.12893 5.92162,-2.27163 10.82075,-4.0756 10.88638,-4.00997 0.15999,0.16 5.3114,35.42613 5.19039,35.52765 -0.74764,0.63072 -35.40355,10.85357 -36.23836,10.6905 -0.57945,-0.11383 -6.78925,-1.96806 -13.799,-4.12175 -7.00973,-2.15368 -12.79905,-3.86535 -12.86572,-3.80382 -0.0668,0.0627 -0.41842,7.28151 -0.78148,16.04395 -0.36408,8.76244 -0.69739,15.95473 -0.74045,15.98447 -0.0429,0.0296 -2.90543,2.3988 -6.35955,5.26423 l -6.28158,5.21089 -4.91348,-0.16613 c -2.70134,-0.0923 -15.4522,-0.33024 -28.33434,-0.53022 l -23.42187,-0.36306 -7.5779,-4.6817 c -4.1679,-2.5752 -8.62398,-5.31551 -9.90286,-6.08878 -2.81108,-1.70245 -2.83979,-0.83379 0.25843,-7.62201 1.42144,-3.1126 2.58341,-5.86111 2.58341,-6.10724 0,-0.28306 10.15926,-3.98022 27.70359,-10.08131 16.07782,-5.59037 27.31596,-9.66699 26.77958,-9.71417 -2.2665,-0.19895 -54.63906,-1.49835 -57.43166,-1.42656 -5.28577,0.13845 -17.1926,-5.79649 -23.1255,-11.52634 -0.66354,-0.64095 -1.71064,-32.880644 -1.08607,-33.44985 8.21991,-7.494828 13.30569,-11.151995 22.21991,-15.976251 l 9.00857,-4.876566 12.42268,0.494323 c 10.84125,0.431764 12.54883,0.431764 13.4226,-0.0041 0.5497,-0.27485 6.59233,-2.793641 13.42774,-5.596513 l 12.4278,-5.09809 -11.7817,-0.764046 c -6.48056,-0.420483 -12.02579,-0.759945 -12.32422,-0.754817 -0.77636,0.01537 -8.26607,-10.436157 -8.59834,-11.998094 -0.14666,-0.688153 -1.08403,-6.693867 -2.08293,-13.344663 l -1.81628,-12.09347 5.30013,-9.003441 c 4.12278,-7.002565 5.45703,-9.0085715 6.00366,-9.0249804 0.38664,-0.012299 7.36764,-0.5466264 15.51372,-1.1886298 15.73936,-1.2399097 21.1595,-1.3178533 26.06066,-0.3763834 M 303.15924,82.768733 c 3.67766,0.35382 6.08467,1.002998 7.28869,1.966004 0.73738,0.589701 1.12402,4.451981 1.93113,19.302163 l 0.0801,1.48501 -15.84395,6.69901 c -8.71425,3.68383 -16.10139,6.78002 -16.41625,6.88053 -0.67687,0.21639 -9.18496,-11.7694 -8.68243,-12.22989 0.16511,-0.15178 2.62441,-1.16197 5.46628,-2.24701 2.84081,-1.08505 5.2478,-2.02139 5.34831,-2.0819 0.10051,-0.0607 0,-2.95056 -0.22358,-6.42209 -0.22358,-3.472557 -0.31177,-6.468235 -0.1969,-6.656938 0.11588,-0.189731 1.50348,-1.931141 3.0849,-3.869461 l 2.87568,-3.523839 5.92162,0.183578 c 3.25719,0.101534 7.47228,0.333308 9.3665,0.514833 m -14.52613,12.291384 c 0.10972,0.900449 0.38765,3.805878 0.61635,6.459013 0.22973,2.65211 0.46459,4.88169 0.52305,4.95554 0.1446,0.18152 13.21646,-3.53308 13.19902,-3.7505 -0.0194,-0.23484 -13.92718,-9.299819 -14.26767,-9.299819 -0.14974,0 -0.18152,0.736357 -0.0709,1.635766 m -91.18409,27.677973 c -3.39255,6.5154 -7.09486,13.60311 -8.22606,15.74963 l -2.0583,3.90328 6.71436,-5.22013 6.71439,-5.22115 0.19486,-2.32494 c 0.10768,-1.27991 0.83378,-5.55858 1.61527,-9.50802 2.1906,-11.08024 2.17421,-11.071 -4.95452,2.62133 m -75.4888,77.42612 c 4.37095,1.30655 11.58889,3.26437 16.04086,4.35147 4.45199,1.08607 8.28042,2.07267 8.50913,2.19266 0.26665,0.1405 -0.63689,1.45527 -2.55365,3.71358 l -2.96698,3.49512 -3.54128,8.84448 -3.54127,8.8445 10.74382,-0.24616 c 5.90931,-0.13538 10.76331,-0.26561 10.7869,-0.28922 0.0225,-0.0235 0.37741,-3.37513 0.78764,-7.44868 0.6779,-6.71951 0.81738,-7.46919 1.51578,-8.09376 0.42253,-0.37945 3.2695,-2.51366 6.32568,-4.74325 l 5.55652,-4.05302 5.82933,4.12996 5.8293,4.12995 0.61124,7.84558 c 0.33639,4.31556 0.63483,7.84556 0.66252,7.84556 0.0276,0 4.25507,-0.0481 9.39419,-0.10665 l 9.34392,-0.10563 -5.60267,-11.60531 c -3.08182,-6.3821 -5.55651,-11.65452 -5.50011,-11.71708 0.0575,-0.0627 3.72179,-0.47587 8.143,-0.91993 7.5174,-0.75483 8.41066,-0.91994 13.78771,-2.55674 3.16181,-0.96199 5.96058,-1.74963 6.21904,-1.74963 0.25843,0 6.89385,7.32256 14.74557,16.27062 17.32796,19.75137 17.45309,19.88366 29.25734,30.9208 21.31639,19.93187 24.21773,23.6639 27.33954,35.16357 2.02446,7.45484 2.88389,9.5706 10.2054,25.10995 3.80075,8.06917 7.27641,16.08394 8.59732,19.82521 1.25939,3.56795 1.64705,2.91261 -3.51154,5.93701 -1.84397,1.08095 -3.35565,2.14856 -3.35873,2.37213 -0.0204,1.3394 4.47044,3.20593 19.33603,8.03737 19.20577,6.24261 22.40757,8.58399 17.92586,13.11288 -3.21926,3.2531 -5.46319,3.58845 -24.00747,3.58332 -18.98836,-0.005 -24.12747,-0.55482 -26.25449,-2.81004 -1.49936,-1.59065 -1.99576,-0.54458 5.78521,-12.20629 3.80281,-5.69907 6.86412,-10.40232 6.80259,-10.45257 -0.0607,-0.0502 -6.38826,0.50355 -14.06052,1.23068 l -13.94974,1.32196 -10.67716,-0.9066 c -5.8724,-0.49843 -10.83305,-1.02762 -11.02176,-1.17633 -0.18973,-0.14768 -6.76771,-13.42364 -14.61841,-29.5004 l -14.2728,-29.23068 -21.54816,-13.69745 -21.5492,-13.69746 -8.95523,0.20613 c -4.92477,0.11282 -10.16849,0.29947 -11.65249,0.41435 l -2.69723,0.2092 -18.01201,19.8447 -18.01304,19.84471 -22.42809,21.52764 -22.428099,21.52662 -6.748223,0.85225 -6.747197,0.85123 -13.962054,-1.98754 c -7.679436,-1.09326 -14.007176,-1.94141 -14.060505,-1.885 -0.05434,0.0564 3.224377,4.58632 7.286644,10.06695 4.062266,5.48062 7.341,10.13566 7.286645,10.34591 -0.05536,0.20921 -1.262471,2.1947 -2.682881,4.40993 l -2.5834,4.02945 -13.605156,-0.0235 c -20.6836096,-0.0347 -21.0928096,-0.20511 -18.078672,-7.52151 1.439894,-3.49614 1.892169,-3.99868 7.400482,-8.21477 9.527506,-7.29177 12.937513,-10.21257 13.797963,-11.82168 0.264595,-0.49435 -0.406125,-1.20301 -3.897151,-4.12074 -2.319831,-1.93831 -4.204819,-3.77203 -4.18841,-4.07456 0.08924,-1.7332 47.341142,-66.22079 55.46875,-75.70113 4.517617,-5.26935 12.168336,-14.72917 17.001824,-21.02204 l 8.78808,-11.44019 3.15053,-8.01992 c 1.73219,-4.41095 3.41102,-8.83424 3.73,-9.82903 0.70968,-2.21214 -0.20204,-2.26752 9.28342,0.56716"
             stroke="none"
             fill="#000000"
             fill-rule="evenodd"
             inkscape:label="person"
             sodipodi:nodetypes="ccccscccccccscsccsccsccccccccscccccccccccccccccccccsccccccsscccccccccsccccccccccccccccsccccccccsccccccsccccccccscccccccccccccccccccccccsccccccccccccccc"
             style="fill:#ffffff;stroke-width:1.02556" />
        </g>
      </g>
    </g>
  </g>
</svg>
