<?xml version="1.0" encoding="UTF-8" standalone="no"?>
<svg width="16" height="16" version="1.1" xmlns="http://www.w3.org/2000/svg">
  <g>
    <circle style="fill:#36454f" cx="8" cy="8" r="6.75"/>
    <path style="fill:#ced0d6" d="M 8.0238868,0.99999952 A 7.0033253,6.9999991 0 0 0 1.0205615,7.9999988 7.0033253,6.9999991 0 0 0 8.0238868,14.999998 7.0033253,6.9999991 0 0 0 15.027212,7.9999988 7.0033253,6.9999991 0 0 0 8.0238868,0.99999952 Z m 0,0.39518548 A 6.6079761,6.6048375 0 0 1 14.631839,7.9999988 6.6079761,6.6048375 0 0 1 8.0238868,14.604812 6.6079761,6.6048375 0 0 1 1.4159348,7.9999988 6.6079761,6.6048375 0 0 1 8.0238868,1.395185 Z"/>
    <path style="fill:#ffffff" d="m 8.6018119,2.9439227 c 0.1643447,0.031605 0.1756277,0.052536 0.1072343,0.199082 -0.068089,0.1458807 -0.064651,0.1128898 -0.066869,0.6398846 -0.00189,0.4422164 -0.0112,0.6102204 -0.035209,0.6342012 -0.00244,0.00247 -0.050873,0.016662 -0.1076227,0.031549 -0.1876874,0.049237 -0.1830573,0.043359 -0.2054579,0.2615151 -0.0097,0.094287 -0.016995,0.1720239 -0.016218,0.1728001 7.731e-4,7.488e-4 0.1932879,0.041779 0.4278001,0.091182 L 9.131884,5.0639334 9.3630975,5.1942059 9.5943388,5.3244782 9.763895,5.6034866 c 0.093262,0.1534774 0.1709428,0.2790091 0.1726061,0.2790091 0.00169,0 0.1340429,-0.050235 0.2941179,-0.1116146 0.160075,-0.061408 0.29251,-0.110173 0.294284,-0.1083989 0.0043,0.00433 0.14358,0.9576509 0.140309,0.9603952 -0.02021,0.01705 -0.9570409,0.2933973 -0.9796077,0.2889891 C 9.6699404,6.9087894 9.502075,6.8586653 9.3125852,6.800446 9.1230958,6.742227 8.966597,6.6959566 8.9647948,6.6976199 c -0.00181,0.00169 -0.011311,0.1968362 -0.021125,0.4337053 -0.00984,0.2368692 -0.018852,0.4312936 -0.020016,0.4320975 -0.00116,8.002e-4 -0.078541,0.064845 -0.1719135,0.1423044 l -0.169806,0.1408625 -0.1328229,-0.00449 c -0.073023,-0.0025 -0.4177089,-0.00893 -0.7659432,-0.014333 L 7.0500205,7.8179513 6.8451722,7.691394 C 6.7325042,7.6217804 6.6120459,7.5477034 6.5774748,7.5268001 c -0.07599,-0.046021 -0.076766,-0.022539 0.00699,-0.2060407 0.038425,-0.084141 0.069836,-0.1584394 0.069836,-0.1650929 0,-0.00765 0.2746284,-0.1075946 0.7488926,-0.2725213 C 7.8378099,6.7320245 8.141603,6.6218239 8.1271034,6.6205486 8.0658346,6.6151705 6.6500823,6.5800447 6.5745918,6.5819853 6.4317051,6.5857279 6.1098358,6.4252927 5.9494557,6.2704015 5.9315186,6.2530751 5.9032131,5.3815611 5.9200967,5.3661741 6.1423,5.1635714 6.2797805,5.0647097 6.5207526,4.9342988 l 0.2435227,-0.1318249 0.3358139,0.013363 c 0.2930643,0.011672 0.3392242,0.011672 0.3628442,-1.109e-4 0.01486,-0.00743 0.178206,-0.075519 0.3629831,-0.1512867 L 8.1618689,4.5266257 7.8433821,4.5059718 C 7.6681974,4.4946051 7.518297,4.4854287 7.5102297,4.4855673 7.4892429,4.4859828 7.2867786,4.2034537 7.2777965,4.1612309 7.273832,4.1426285 7.2484927,3.98028 7.2214901,3.8004935 L 7.1723918,3.4735789 7.3156667,3.2301949 C 7.427115,3.0408992 7.4631829,2.9866722 7.4779596,2.9862286 7.4884114,2.9858962 7.6771241,2.971452 7.8973316,2.9540972 8.3228032,2.9205795 8.4693222,2.9184725 8.6018119,2.9439227 M 11.43548,4.989247 c 0.09942,0.00956 0.164483,0.027113 0.19703,0.053146 0.01993,0.015941 0.03039,0.1203474 0.0522,0.5217824 l 0.0022,0.040143 -0.428299,0.1810898 c -0.235566,0.099583 -0.435258,0.1832798 -0.443769,0.1859968 -0.0183,0.00585 -0.248291,-0.3181543 -0.234706,-0.3306024 0.0045,-0.0041 0.07094,-0.031411 0.147766,-0.060742 0.07679,-0.029331 0.14186,-0.054643 0.144577,-0.056279 0.0027,-0.00164 0,-0.079761 -0.006,-0.1736041 -0.006,-0.093871 -0.0084,-0.1748515 -0.0053,-0.1799525 0.0031,-0.00513 0.04064,-0.052203 0.08339,-0.1046006 l 0.07774,-0.095258 0.160075,0.00496 c 0.08805,0.00274 0.201993,0.00901 0.253198,0.013917 m -0.392675,0.3322648 c 0.003,0.024341 0.01048,0.1028817 0.01666,0.1746021 0.0062,0.071693 0.01256,0.1319635 0.01414,0.1339598 0.0039,0.00491 0.357272,-0.095507 0.3568,-0.1013847 -5.24e-4,-0.00635 -0.376484,-0.2513958 -0.385688,-0.2513958 -0.004,0 -0.0049,0.019905 -0.0019,0.044219 M 8.5778848,6.0697119 C 8.4861763,6.2458383 8.3860942,6.4374356 8.3555152,6.495461 L 8.2998746,6.6009758 8.4813794,6.4598635 8.662885,6.3187237 8.6681525,6.2558751 C 8.6710634,6.2212762 8.6906915,6.1056138 8.711817,5.9988512 8.7710341,5.6993265 8.770591,5.6995763 8.5778848,6.0697119 M 6.5372467,8.1627203 c 0.1181569,0.035319 0.3132747,0.088243 0.4336218,0.1176304 0.1203476,0.029359 0.223839,0.056029 0.2300216,0.059273 0.00721,0.0038 -0.017217,0.039339 -0.069031,0.1003867 l -0.080204,0.094481 -0.095729,0.2390869 -0.095729,0.2390875 0.2904305,-0.00665 c 0.1597424,-0.00366 0.2909573,-0.00718 0.291595,-0.00782 6.082e-4,-6.353e-4 0.010202,-0.091238 0.021292,-0.2013552 0.018325,-0.181644 0.022096,-0.2019096 0.040975,-0.2187932 0.011422,-0.010257 0.088382,-0.06795 0.1709979,-0.1282211 L 7.8256927,8.3402611 7.983273,8.4519035 8.1408526,8.5635457 8.1573758,8.77563 c 0.00909,0.1166596 0.017161,0.2120837 0.01791,0.2120837 7.461e-4,0 0.1150245,-0.0013 0.2539468,-0.00288 L 8.6818201,8.9819753 8.5303668,8.6682567 C 8.4470581,8.4957337 8.3801614,8.3532079 8.3816861,8.3515168 c 0.00155,-0.00169 0.1006086,-0.012864 0.2201242,-0.024868 0.2032129,-0.020405 0.2273598,-0.024868 0.3727139,-0.069115 0.085471,-0.026005 0.1611284,-0.047297 0.1681152,-0.047297 0.00699,0 0.1863568,0.1979459 0.3986071,0.4398328 0.4684155,0.5339255 0.4717975,0.5375016 0.7908945,0.8358612 0.576231,0.5388052 0.654661,0.6396902 0.739051,0.9505532 0.05473,0.201522 0.07796,0.258716 0.275876,0.67878 0.102743,0.218129 0.196698,0.434787 0.232405,0.535922 0.03404,0.09645 0.04452,0.07874 -0.09492,0.160491 -0.04985,0.02922 -0.09071,0.05808 -0.09079,0.06412 -5.51e-4,0.03621 0.120846,0.08666 0.522698,0.217269 0.519177,0.168753 0.605729,0.232046 0.484578,0.354472 -0.08702,0.08794 -0.147683,0.097 -0.648978,0.09687 -0.5133,-1.35e-4 -0.652222,-0.015 -0.70972,-0.07596 -0.04053,-0.043 -0.05395,-0.01472 0.156387,-0.329965 0.102799,-0.154059 0.185554,-0.281199 0.18389,-0.282557 -0.0016,-0.0014 -0.172689,0.01361 -0.380088,0.03327 l -0.377094,0.03574 -0.288629,-0.02451 c -0.158744,-0.01347 -0.292842,-0.02778 -0.297944,-0.0318 -0.0051,-0.004 -0.1829466,-0.362872 -0.3951693,-0.797464 L 9.2578577,10.280984 8.6753607,9.9107102 8.0928356,9.540436 7.8507549,9.5460081 c -0.133128,0.00305 -0.274878,0.0081 -0.314994,0.011201 l -0.072912,0.00566 -0.4869066,0.5364489 -0.4869344,0.536448 -0.6062836,0.581943 -0.6062837,0.581914 -0.1824202,0.02304 -0.1823925,0.02301 -0.3774268,-0.05373 c -0.2075931,-0.02955 -0.3786466,-0.05248 -0.3800882,-0.05096 -0.00147,0.0015 0.087162,0.123978 0.1969749,0.272133 0.1098125,0.148154 0.1984444,0.27399 0.196975,0.279674 -0.0015,0.0057 -0.034128,0.05933 -0.072525,0.11921 l -0.069835,0.108926 -0.3677791,-6.35e-4 c -0.5591262,-9.38e-4 -0.5701878,-0.0055 -0.4887086,-0.203324 0.038924,-0.09451 0.05115,-0.108094 0.2000522,-0.222065 0.2575507,-0.197113 0.3497312,-0.276069 0.3729911,-0.319567 0.00715,-0.01336 -0.010979,-0.03252 -0.105349,-0.111393 -0.06271,-0.0524 -0.1136661,-0.101967 -0.1132225,-0.110145 C 3.906099,11.506945 5.1834281,9.7636954 5.4031362,9.5074197 5.5252579,9.3649769 5.7320747,9.109256 5.8627352,8.939145 L 6.1002974,8.62989 6.1854636,8.4130929 C 6.2322887,8.2938547 6.2776714,8.1742828 6.2862942,8.1473913 6.3054785,8.087592 6.2808326,8.086095 6.5372467,8.162723"/>
  </g>
</svg>
