<!-- Karate report inline SVG sprite (Heroicons v2, MIT). Spliced into the KARATE_ICONS placeholder by HtmlReportWriter. -->
<svg xmlns="http://www.w3.org/2000/svg" style="display:none" aria-hidden="true">

    <!-- Status: passed -->
    <symbol id="icon-check-circle" viewBox="0 0 24 24" fill="none" stroke="currentColor" stroke-width="1.5">
        <path stroke-linecap="round" stroke-linejoin="round" d="M9 12.75 11.25 15 15 9.75M21 12a9 9 0 1 1-18 0 9 9 0 0 1 18 0Z" />
    </symbol>

    <!-- Status: failed -->
    <symbol id="icon-x-circle" viewBox="0 0 24 24" fill="none" stroke="currentColor" stroke-width="1.5">
        <path stroke-linecap="round" stroke-linejoin="round" d="m9.75 9.75 4.5 4.5m0-4.5-4.5 4.5M21 12a9 9 0 1 1-18 0 9 9 0 0 1 18 0Z" />
    </symbol>

    <!-- Status: skipped -->
    <symbol id="icon-minus-circle" viewBox="0 0 24 24" fill="none" stroke="currentColor" stroke-width="1.5">
        <path stroke-linecap="round" stroke-linejoin="round" d="M9 12.75h6m6 0a9 9 0 1 1-18 0 9 9 0 0 1 18 0Z" />
    </symbol>

    <!-- Sort indicator: ascending -->
    <symbol id="icon-chevron-up" viewBox="0 0 24 24" fill="none" stroke="currentColor" stroke-width="1.5">
        <path stroke-linecap="round" stroke-linejoin="round" d="m4.5 15.75 7.5-7.5 7.5 7.5" />
    </symbol>

    <!-- Sort indicator: descending / row expanded -->
    <symbol id="icon-chevron-down" viewBox="0 0 24 24" fill="none" stroke="currentColor" stroke-width="1.5">
        <path stroke-linecap="round" stroke-linejoin="round" d="m19.5 8.25-7.5 7.5-7.5-7.5" />
    </symbol>

    <!-- Row collapsed (replaces the unicode ▶ used in the current templates) -->
    <symbol id="icon-chevron-right" viewBox="0 0 24 24" fill="none" stroke="currentColor" stroke-width="1.5">
        <path stroke-linecap="round" stroke-linejoin="round" d="m8.25 4.5 7.5 7.5-7.5 7.5" />
    </symbol>

    <!-- Theme toggle: switch to light -->
    <symbol id="icon-sun" viewBox="0 0 24 24" fill="none" stroke="currentColor" stroke-width="1.5">
        <path stroke-linecap="round" stroke-linejoin="round" d="M12 3v2.25m6.364.386-1.591 1.591M21 12h-2.25m-.386 6.364-1.591-1.591M12 18.75V21m-4.773-4.227-1.591 1.591M5.25 12H3m4.227-4.773L5.636 5.636M15.75 12a3.75 3.75 0 1 1-7.5 0 3.75 3.75 0 0 1 7.5 0Z" />
    </symbol>

    <!-- Theme toggle: switch to dark -->
    <symbol id="icon-moon" viewBox="0 0 24 24" fill="none" stroke="currentColor" stroke-width="1.5">
        <path stroke-linecap="round" stroke-linejoin="round" d="M21.752 15.002A9.72 9.72 0 0 1 18 15.75c-5.385 0-9.75-4.365-9.75-9.75 0-1.33.266-2.597.748-3.752A9.753 9.753 0 0 0 3 11.25C3 16.635 7.365 21 12.75 21a9.753 9.753 0 0 0 9.002-5.998Z" />
    </symbol>

    <!-- Enterprise CTA: sparkle -->
    <symbol id="icon-sparkle" viewBox="0 0 24 24" fill="currentColor">
        <path d="M12 2l1.5 5.5L19 9l-5.5 1.5L12 16l-1.5-5.5L5 9l5.5-1.5L12 2zm6 12l.8 2.7L21.5 18l-2.7.8L18 21.5l-.8-2.7L14.5 18l2.7-.8L18 14.5z"/>
    </symbol>

    <!-- Enterprise CTA: right arrow -->
    <symbol id="icon-arrow-right" viewBox="0 0 24 24" fill="none" stroke="currentColor" stroke-width="2">
        <path stroke-linecap="round" stroke-linejoin="round" d="M5 12h14M12 5l7 7-7 7"/>
    </symbol>

    <!-- Hero meta: clock -->
    <symbol id="icon-clock" viewBox="0 0 24 24" fill="none" stroke="currentColor" stroke-width="1.5">
        <path stroke-linecap="round" stroke-linejoin="round" d="M12 6v6h4.5m4.5 0a9 9 0 1 1-18 0 9 9 0 0 1 18 0Z"/>
    </symbol>

    <!-- Hero meta: server / env -->
    <symbol id="icon-server" viewBox="0 0 24 24" fill="none" stroke="currentColor" stroke-width="1.5">
        <path stroke-linecap="round" stroke-linejoin="round" d="M5.25 14.25h13.5m-13.5 0a3 3 0 0 1-3-3V8.25a3 3 0 0 1 3-3h13.5a3 3 0 0 1 3 3v3a3 3 0 0 1-3 3m-13.5 0v3a3 3 0 0 0 3 3h7.5a3 3 0 0 0 3-3v-3M7.5 11.25h.008v.008H7.5v-.008Z"/>
    </symbol>

    <!-- Hero meta: cpu / threads -->
    <symbol id="icon-cpu" viewBox="0 0 24 24" fill="none" stroke="currentColor" stroke-width="1.5">
        <path stroke-linecap="round" stroke-linejoin="round" d="M9 17.25v1.007a3 3 0 0 1-.879 2.122L7.5 21h9l-.621-.621A3 3 0 0 1 15 18.257V17.25m6-12v8.25a2.25 2.25 0 0 1-2.25 2.25H5.25a2.25 2.25 0 0 1-2.25-2.25V5.25m18 0A2.25 2.25 0 0 0 18.75 3H5.25A2.25 2.25 0 0 0 3 5.25m18 0V12a2.25 2.25 0 0 1-2.25 2.25H5.25A2.25 2.25 0 0 1 3 12V5.25"/>
    </symbol>

</svg>
