<svg xmlns="http://www.w3.org/2000/svg" width="584" height="64" viewBox="0 0 584 64">
  <g fill="none" fill-rule="evenodd">
    <path fill="#6161D6" fill-rule="nonzero" d="M73.1460435,48.8546528 C75.694657,47.353727 77.8887203,45.3196347 79.5779316,42.891719 L82.5359508,42.891719 C84.0401216,42.891719 85.2594929,41.6723476 85.2594929,40.1681769 C85.2594929,38.6640061 84.0401216,37.4446348 82.5359508,37.4446348 L82.3014737,37.4446348 C82.8842837,35.694821 83.2312391,33.8751249 83.3331731,32.033624 L86.2442969,32.033624 C87.7484676,32.033624 88.9678389,30.8142527 88.9678389,29.310082 C88.9678389,27.8059112 87.7484676,26.5865399 86.2442969,26.5865399 L83.2393822,26.5865399 C83.0475663,24.731933 82.6058747,22.9117757 81.9263103,21.1755291 L82.4890554,21.1755291 C83.4850713,21.2117959 84.4213487,20.7011134 84.9301214,19.8440758 C85.4388941,18.9870383 85.4388941,17.9205431 84.9301214,17.0635056 C84.4213487,16.206468 83.4850713,15.6957855 82.4890554,15.7320523 L78.8276048,15.7320523 C74.8654161,10.7854975 68.8746152,7.90152908 62.536855,7.88969403 L57.8869931,7.88969403 C55.0420557,7.88481156 52.2277735,8.47716267 49.6261834,9.62843215 L54.5069151,9.62843215 C65.4263537,9.51068913 74.5262947,17.9631856 75.2133326,28.861625 C75.9003706,39.7600644 67.9339433,49.2884252 57.0861635,50.5428882 C56.476523,50.5897836 55.8668824,50.636679 55.2103465,50.636679 L34.0857605,50.636679 C37.5118642,48.7563377 40.4536105,46.1048141 42.6784455,42.891719 C42.8315776,42.9304946 42.9896218,42.9462991 43.1473998,42.9386144 L61.5448364,42.9386144 C63.0490072,42.9386144 64.2683785,41.7192431 64.2683785,40.2150723 C64.2683785,38.7109016 63.0490072,37.4915302 61.5448364,37.4915302 L45.5426739,37.4915302 C46.2041022,35.7434626 46.6757643,33.9293776 46.9495367,32.0805195 L68.0308346,32.0805195 C69.5350054,32.0805195 70.7543767,30.8611481 70.7543767,29.3569774 C70.7543767,27.8528066 69.5350054,26.6334353 68.0308346,26.6334353 L47.1840138,26.6334353 C47.035834,24.7978941 46.6899302,22.9837133 46.1523145,21.2224245 L61.6458419,21.2224245 C63.1104755,21.1690946 64.2702806,19.9662903 64.2702806,18.5006861 C64.2702806,17.0350819 63.1104755,15.8322777 61.6458419,15.7789477 L43.7570404,15.7789477 C39.2413119,8.14027304 31.0334986,3.44754799 22.1598927,3.43102116 L20.3778665,3.43102116 C12.2891108,3.4536928 4.70536995,7.36705881 5.12633919e-15,13.9464187 C5.19994858,7.94896676 13.1862066,5.152332 20.9917244,6.59551848 C28.7972422,8.03870495 35.2555491,13.5060403 37.9672588,20.9663034 L26.6221729,20.9663034 C23.3262104,16.849367 17.7778434,15.2827204 12.8153793,17.067793 C7.85291519,18.8528657 4.57386331,23.594867 4.65564645,28.8679919 C4.73742958,34.1411168 8.16196039,38.7791494 13.1773953,40.4094706 C18.1928302,42.0397918 23.6899447,40.3018361 26.8566501,36.0846674 L15.1183641,36.0846674 C15.1164481,33.4817853 16.1495905,30.9849599 17.9901066,29.1444438 C19.8306227,27.3039277 22.3274481,26.2707853 24.9303302,26.2727013 L39.2514721,26.2727013 C39.3451658,27.067688 39.3921419,27.8674865 39.3921583,28.6679754 C39.3866339,37.90523 33.7099883,46.1913213 25.0982035,49.5325885 C16.4864186,52.8738556 6.70668702,50.5846496 0.472561607,43.7683027 C5.2132354,50.0026838 12.5926846,53.6663915 20.424762,53.6740598 L57.2196351,53.6740598 C76.2808224,53.6740598 91.727466,52.5485695 91.727466,51.0948113 C91.7382765,50.1677248 84.1808981,49.2767117 73.1460435,48.8546528 Z"/>
    <path fill="#24275E" d="M9.86634549,1.02526784e-14 L5.23812762,1.02526784e-14 L5.23812762,8.96424116 L1.22676497,8.96424116 C0.89905775,8.9582801 0.583064906,9.08608433 0.351643148,9.31818674 C0.12022139,9.55028915 -0.00665426278,9.86665597 0.000269200862,10.1943443 L0.000269200862,15.2698724 L5.23812762,15.2698724 L5.23812762,43.4722587 L11.9117076,43.4722587 C12.2387764,43.4779907 12.5541978,43.3506762 12.7855084,43.1193656 C13.016819,42.888055 13.1441335,42.5726335 13.1382033,42.2455647 L13.1382033,15.3095531 L18.9099481,15.3095531 L18.9099481,10.234025 C18.9158784,9.90695619 18.7885638,9.59153475 18.5572532,9.36022415 C18.3259426,9.12891355 18.0105212,9.00159904 17.6834524,9.00752925 L13.1382033,9.00752925 L13.1382033,3.27546518 C13.134244,1.46952525 11.67228,0.00594932229 9.86634549,1.02526784e-14 Z" transform="translate(194.99 6.642)"/>
    <path fill="#24275E" d="M4.10107135e-14,43.5120104 L6.6699726,43.5120104 C6.9976609,43.5186647 7.31402773,43.391789 7.54613014,43.1603673 C7.77823255,42.9289455 7.90603677,42.6129527 7.90007571,42.2852454 L7.90007571,3.27546518 C7.89413641,1.46894157 6.43113414,0.00593930379 4.62461053,1.02526784e-14 L4.10107135e-14,1.02526784e-14 L4.10107135e-14,43.5120104 Z" transform="translate(216.646 6.642)"/>
    <path fill="#24275E" d="M0,34.5044812 L6.6699726,34.5044812 C6.9976609,34.5111354 7.31402773,34.3842598 7.54613014,34.152838 C7.77823255,33.9214163 7.90603677,33.6054234 7.90007571,33.2777162 L7.90007571,3.27546518 C7.89413641,1.46894157 6.43113414,0.00593930379 4.62461053,1.02526784e-14 L0,1.02526784e-14 L0,34.5044812 Z" transform="translate(230.44 15.65)"/>
    <path fill="#24275E" d="M234.408594,0.0112623576 C233.066031,-0.0522082171 231.758941,0.453379046 230.808546,1.40377427 C229.858151,2.3541695 229.352564,3.66125927 229.416034,5.00382162 C229.360521,6.30999884 229.867457,7.57733743 230.808468,8.48490521 C231.780547,9.40144476 233.080855,9.88775996 234.415808,9.83405056 C235.723427,9.87819946 236.993309,9.39158484 237.936573,8.48490521 C238.870591,7.57265117 239.376223,6.30856981 239.329006,5.00382162 C239.386081,3.66016185 238.881638,2.35331498 237.936573,1.39648111 C237.012864,0.45508888 235.733549,-0.0508694548 234.415808,0.00404767662"/>
    <path fill="#24275E" d="M7.98304454,15.2698724 C7.98304454,12.6076551 8.70451265,10.5190049 10.1474488,9.00752925 C11.5903851,7.49605358 13.5852444,6.75294143 16.0851313,6.75294143 C18.3745901,6.75294143 20.0928866,7.44915815 21.2400209,8.84159158 C22.3871552,10.234025 22.9210416,12.1567375 22.9210416,14.6133364 L22.9210416,35.3268852 L29.5910142,35.3268852 C29.9190397,35.3326152 30.2353783,35.2049205 30.4673652,34.9729335 C30.6993522,34.7409466 30.8270469,34.424608 30.821315,34.0965825 L30.821315,13.6321398 C30.821315,9.49812756 29.7136638,6.22266238 27.4626833,3.72638274 C25.2117028,1.23010311 22.0516725,0 17.9681631,0 C15.3456265,0 13.1379341,0.533886395 11.2945831,1.55476376 C9.63925748,2.42512313 8.26367943,3.74567806 7.32650857,5.36411533 L7.32650857,4.05465073 C7.32254073,2.24730735 5.85838677,0.783153387 4.05104339,0.77918555 L0,0.77918555 L0,35.3268852 L6.67357994,35.3268852 C7.00128716,35.3326467 7.31728001,35.2048424 7.54870176,34.97274 C7.78012352,34.7406376 7.90699918,34.4242708 7.90007571,34.0965825 L7.90007571,15.2698724 L7.98304454,15.2698724 Z" transform="translate(243.128 14.87)"/>
    <path fill="#24275E" d="M34.4098077,14.2055889 C30.6760995,8.76599285 23.7423901,6.53046838 17.5345139,8.7647591 C11.3266377,10.9990498 7.40790461,17.1405013 7.99708328,23.711852 C8.58626195,30.2832028 13.5349813,35.6296101 20.0412994,36.7239629 C26.5476174,37.8183157 32.9730684,34.3850265 35.6795916,28.3680077 L20.0020897,28.3680077 C20.0001722,25.9137492 20.9745205,23.5595123 22.7102822,21.8244273 C24.4460439,20.0893423 26.8006605,19.1159121 29.2549181,19.1187867 L44.5608639,19.1187867 C44.7280937,20.2158453 44.8101053,21.3242083 44.8062987,22.4339326 C44.7915964,33.9913633 35.9870243,43.6406474 24.4792552,44.7110067 C12.9714862,45.7813661 2.53834719,37.9214179 0.392513672,26.5649301 C-1.75331985,15.2084423 5.09259685,4.08357831 16.1975199,0.881219439 C27.3024429,-2.32113943 39.0207936,3.45029287 43.2513993,14.2055889 L34.4098077,14.2055889 Z" transform="translate(113.22 6.115)"/>
    <path fill="#24275E" d="M24.4850661,11.467493 C21.9167276,8.23778982 17.5289335,7.08389643 13.7040518,8.63232318 C9.8791701,10.1807499 7.5297768,14.0620587 7.93148303,18.1688795 C8.33318926,22.2757004 11.3901522,25.6281896 15.4425834,26.4061017 C19.4950145,27.1840138 23.5760469,25.2017472 25.4698701,21.5355803 L15.7553021,21.5355803 C15.7459609,18.1513017 18.4328679,15.3748312 21.8156341,15.2732372 L34.2573516,15.2732372 C34.3396341,15.9253304 34.380599,16.5819741 34.3800076,17.2392378 C34.3555182,26.1629873 27.5063024,33.583882 18.613109,34.3221345 C9.71991574,35.0603869 1.74082015,28.8704377 0.24523432,20.072874 C-1.25035151,11.2753103 4.23503775,2.79639874 12.8725981,0.554423057 C21.5101585,-1.68755263 30.426844,3.0531389 33.3988045,11.467493 L24.4850661,11.467493 Z" transform="translate(276.818 15.602)"/>
    <path fill="#24275E" d="M195.193195,33.1266482 C195.154032,25.2736088 189.799672,18.4447766 182.182703,16.5333536 C174.565733,14.6219306 166.621523,18.1135835 162.879165,25.0176777 C159.136807,31.9217719 160.547183,40.4840703 166.306221,45.8231004 C172.065259,51.1621305 180.709665,51.9213168 187.311156,47.6678378 L187.311156,50.1532954 L191.935766,50.1532954 C193.741706,50.1493361 195.205282,48.687372 195.211232,46.8814376 L195.211232,33.1266482 L195.193195,33.1266482 Z M177.960929,42.6247758 C172.737173,42.6247758 168.502482,38.3900849 168.502482,33.166329 C168.502482,27.942573 172.737173,23.7078822 177.960929,23.7078822 C183.184685,23.7078822 187.419376,27.942573 187.419376,33.166329 C187.417385,38.38926 183.18386,42.6227849 177.960929,42.6247758 L177.960929,42.6247758 Z"/>
    <polygon fill="#6161D6" fill-rule="nonzero" points="324.78 50.074 324.78 6.613 351.669 6.613 351.669 10.898 329.996 10.898 329.996 26.049 349.807 26.049 349.807 30.273 329.996 30.273 329.996 45.785 351.669 45.785 351.669 50.07"/>
    <path fill="#6161D6" fill-rule="nonzero" d="M356.390813 50.0739339L356.390813 19.267246 361.109214 19.267246 361.419445 24.797299C362.377991 22.8863305 363.865539 21.2910979 365.704966 20.2015472 367.621457 19.069156 369.8137 18.4886361 372.039456 18.5241338 375.68287 18.5241338 378.591589 19.6315874 380.765613 21.8464945 382.939636 24.0614015 384.021839 27.466731 384.012283 32.0624828L384.012283 50.0739339 378.796005 50.0739339 378.796005 32.6216205C378.796005 26.2053642 376.150622 22.9972361 370.859856 22.9972361 368.337578 22.9399502 365.917871 23.9954385 364.243993 25.8831085 362.483611 27.8070234 361.604622 30.5498046 361.607027 34.1114522L361.607027 50.0739339 356.390813 50.0739339zM400.981149 50.0739339C398.165018 50.0739339 395.950111 49.3909441 394.336428 48.0249645 392.722744 46.6589849 391.9147 44.1951713 391.912295 40.6335238L391.912295 23.6790234 386.573431 23.6790234 386.573431 19.267246 391.912295 19.267246 392.597689 11.8794126 397.128509 11.8794126 397.128509 19.267246 406.197363 19.267246 406.197363 23.6790234 397.128509 23.6790234 397.128509 40.6335238C397.128509 42.5766779 397.521709 43.8909523 398.30811 44.576347 399.09451 45.2617417 400.482133 45.6032366 402.47098 45.6008317L405.717587 45.6008317 405.717587 50.0739339 400.981149 50.0739339zM422.715375 50.8170461C419.972409 50.8690078 417.26722 50.1718198 414.891054 48.8005427 412.618561 47.4569714 410.761091 45.5121206 409.523331 43.1803062 408.217474 40.7754125 407.565748 37.9388405 407.568146 34.67059 407.568146 31.4432226 408.209057 28.6174726 409.490865 26.1933398 410.712942 23.83947 412.576442 21.8796685 414.865802 20.5406372 417.295851 19.1630589 420.052477 18.4664251 422.84524 18.5241338 425.824903 18.5241338 428.401746 19.1963016 430.57577 20.5406372 432.691982 21.8258175 434.419932 23.6609851 435.575544 25.8506424 436.72761 28.0371113 437.320027 30.4749469 437.299853 32.9462812 437.299853 33.4044134 437.299853 33.8589383 437.270994 34.3134632 437.242136 34.7679881 437.238528 35.2874452 437.238528 35.8646197L412.708613 35.8646197C412.831262 38.2238204 413.379578 40.1802014 414.35356 41.7337627 416.115529 44.6601693 419.288702 46.442081 422.704553 46.4233053 424.868958 46.4233053 426.672628 45.9266948 428.115564 44.9334737 429.559693 43.9439418 430.665241 42.5349346 431.282809 40.8968597L436.437699 40.8968597C435.640831 43.7073541 433.978467 46.19522 431.686831 48.0069278 429.351679 49.88034 426.361194 50.8170461 422.715375 50.8170461zM422.715375 22.9323039C420.315789 22.9047954 417.980229 23.7062503 416.10312 25.2013211 414.179205 26.7115943 413.071752 28.9156794 412.78076 31.8135763L432.155785 31.8135763C432.033136 29.038329 431.080798 26.8655075 429.298772 25.295112 427.516746 23.7247164 425.32228 22.9371137 422.715375 22.9323039zM441.098383 50.0739339L441.098383 19.267246 445.820391 19.267246 446.253272 25.1688551C447.184974 23.1611647 448.691502 21.475109 450.582081 20.3241968 452.52764 19.1217499 454.932533 18.5205265 457.796762 18.5205265L457.796762 23.9856474 456.353826 23.9856474C454.630019 23.9666028 452.91996 24.2941391 451.325193 24.9488073 449.779858 25.5987364 448.491751 26.7397762 447.660135 28.1954137 446.74868 29.7249261 446.292953 31.8364228 446.292953 34.5299037L446.292953 50.0414679 441.098383 50.0739339zM460.538341 63.7349324L460.538341 19.267246 465.256742 19.267246 465.754555 24.3608108C466.882586 22.7387292 468.329803 21.3639347 470.007609 20.3205894 471.849758 19.1181426 474.199339 18.5169192 477.056353 18.5169192 480.120187 18.5169192 482.790822 19.2203506 485.068256 20.6272134 487.335745 22.0257325 489.17322 24.0229871 490.378261 26.3989582 491.67216 28.9794246 492.32196 31.8348329 492.272115 34.7210927 492.325958 37.5996851 491.675831 40.4478581 490.378261 43.0179759 489.166005 45.3841998 487.315291 47.3636266 485.03579 48.7320033 482.739117 50.117222 480.058863 50.8098314 476.995028 50.8098314 474.655568 50.8538989 472.341256 50.3211611 470.256516 49.258675 468.357346 48.2891539 466.790043 46.775853 465.754555 44.9118297L465.754555 63.7277177 460.538341 63.7349324zM476.43589 46.2934411C478.357375 46.3387879 480.252346 45.8384655 481.901011 44.8505049 483.497537 43.8529421 484.790098 42.4368641 485.638216 40.7561734 487.461164 36.9038932 487.461164 32.4372867 485.638216 28.5850065 484.789297 26.914971 483.500931 25.5081206 481.911833 24.5159264 479.45774 22.9783062 476.470242 22.5433362 473.679584 23.3173373 470.888926 24.0913384 468.552272 26.0029846 467.240779 28.5850065 465.417831 32.4372867 465.417831 36.9038932 467.240779 40.7561734 468.963299 44.2375364 472.55314 46.399328 476.43589 46.2934411L476.43589 46.2934411zM496.431379 50.0739339L496.431379 19.267246 501.14978 19.267246 501.582661 25.1688551C502.514363 23.1611647 504.02089 21.475109 505.91147 20.3241968 507.859433 19.1217499 510.264327 18.5205265 513.126151 18.5205265L513.126151 23.9856474 511.683214 23.9856474C509.959408 23.9666028 508.249349 24.2941391 506.654582 24.9488073 505.109826 25.5996568 503.821984 26.7404622 502.989524 28.1954137 502.080474 29.7249261 501.624747 31.8364228 501.622342 34.5299037L501.622342 50.0414679 496.431379 50.0739339zM519.038582 12.4385504C518.073174 12.4678409 517.138516 12.0971968 516.455555 11.4142363 515.772595 10.7312758 515.401951 9.79661769 515.431241 8.8312099 515.40823 7.89555716 515.780081 6.99342482 516.455726 6.34575229 517.908207 5.02248956 520.129276 5.02248956 521.581757 6.34575229 522.273815 6.98431182 522.657575 7.8898294 522.6351 8.8312099 522.662351 9.80083802 522.279985 10.7371097 521.581757 11.4104584 520.906733 12.08114 519.990053 12.4517131 519.038582 12.4385504zM516.430474 50.0739339L516.430474 19.267246 521.646689 19.267246 521.646689 50.0739339 516.430474 50.0739339zM539.409233 50.8170509C535.722531 50.8170509 532.658697 49.8863522 530.21773 48.0249645 527.797755 46.2058015 526.24489 43.4608391 525.932209 40.4495494L531.271073 40.4495494C531.624254 42.1014037 532.534966 43.581469 533.850322 44.6412791 535.23554 45.8220819 537.108953 46.4124833 539.470558 46.4124833 541.663821 46.4124833 543.278707 45.9471364 544.315217 45.0164425 545.299889 44.192657 545.868105 42.9742968 545.866373 41.6904746 545.866373 39.8290869 545.194205 38.5881617 543.84987 37.9676992 542.023122 37.1987918 540.116262 36.6361714 538.164701 36.2902858 536.47287 35.9434785 534.811728 35.460939 533.197393 34.8473496 531.632658 34.2857758 530.212075 33.3838968 529.03813 32.2067764 527.919854 31.0704641 527.360716 29.5662031 527.360716 27.7048154 527.293832 25.1536395 528.404745 22.7136229 530.372845 21.0889529 532.378527 19.3718589 535.100866 18.5133118 538.539864 18.5133118 541.808115 18.5133118 544.488369 19.3309757 546.580626 20.9663034 548.672884 22.6016311 549.882545 24.9343779 550.209611 27.964544L545.054721 27.964544C544.91271 26.5092925 544.184732 25.1744498 543.038218 24.2670199 541.898298 23.3796142 540.376001 22.9347088 538.471325 22.9323039 536.609937 22.9323039 535.167001 23.3255041 534.142516 24.1119043 533.157681 24.8359559 532.589178 25.9958639 532.620219 27.2178245 532.620219 28.4587496 533.271945 29.4315291 534.575397 30.1361629 536.256659 30.9724225 538.042628 31.5790696 539.885402 31.9398332 541.726339 32.3364523 543.541714 32.8436008 545.321665 33.4585235 546.926652 33.9895037 548.37619 34.9075443 549.542253 36.1315629 550.638884 37.3099608 551.188403 39.0174353 551.190808 41.2539864 551.283 43.9055028 550.120009 46.4453686 548.052421 48.1079333 545.93371 49.9164134 543.052647 50.819451 539.409233 50.8170509zM569.40427 50.8170461C566.661303 50.8690078 563.956114 50.1718198 561.579948 48.8005427 559.304477 47.4595716 557.44521 45.5141471 556.208618 43.1803062 554.902761 40.7754125 554.249832 37.9388405 554.249832 34.67059 554.249832 31.4432226 554.891939 28.6174726 556.176152 26.1933398 557.396766 23.8396075 559.259083 21.8797348 561.547482 20.5406372 563.978856 19.1630968 566.736627 18.4664885 569.530527 18.5241338 572.51019 18.5241338 575.087034 19.1963016 577.261057 20.5406372 579.375557 21.8279304 581.103007 23.6625668 582.260831 25.8506424 583.415592 28.0315066 584.012914 30.4641681 583.999788 32.9318518 583.999788 33.3899841 583.999788 33.844509 583.967103 34.2990339 583.934637 34.7535588 583.938245 35.2730158 583.938245 35.8501903L559.408329 35.8501903C559.533384 38.209391 560.081699 40.165772 561.053277 41.7193333 562.815904 44.6468501 565.990743 46.4289271 569.407877 46.408876 571.572281 46.408876 573.375952 45.9122654 574.818888 44.9190443 576.263016 43.9295124 577.368564 42.5205052 577.986133 40.8824303L583.141022 40.8824303C582.342804 43.692301 580.680697 46.179782 578.390155 47.9924985 576.042979 49.8755302 573.047684 50.8170461 569.40427 50.8170461zM569.40427 22.9323039C567.004492 22.9036084 564.668545 23.7051962 562.792015 25.2013211 560.8681 26.7115943 559.759444 28.9156794 559.466047 31.8135763L578.84468 31.8135763C578.72203 29.038329 577.769692 26.8655075 575.987666 25.295112 574.20564 23.7247164 572.011175 22.9371137 569.40427 22.9323039z"/>
  </g>
</svg>
