<svg xmlns="http://www.w3.org/2000/svg" width="463" height="80" viewBox="0 0 463 80">
  <g fill="none" fill-rule="evenodd">
    <path fill="#24275E" d="M448.333721 39.9604149C445.791279 36.748624 441.850762 34.6919983 437.494602 34.6919983 429.861876 34.6919983 423.6866 40.8726715 423.6866 48.5 423.6866 56.1327265 429.867273 62.3080017 437.494602 62.3080017 442.822396 62.3080017 447.48624 59.2797417 449.791173 54.8588061L435.437976 54.8588061C435.437976 49.8332981 439.43787 45.7146486 444.404001 45.5904953L462.816469 45.5904953C462.935224 46.5621296 463 47.5283658 463 48.5 463 62.5509102 451.615686 74 437.5 74 423.44909 74 412 62.6156859 412 48.5 412 34.3843141 423.384314 23 437.5 23 448.582028 23 458.03387 30.0875318 461.547947 39.9604149L448.333721 39.9604149 448.333721 39.9604149zM373.906971 44.9066405C373.906971 40.9164515 375.006746 37.7801301 377.146408 35.5086234 379.286069 33.2371166 382.280507 32.1314675 386.004498 32.1314675 389.4236 32.1314675 391.993372 33.176908 393.702923 35.2623154 395.412475 37.3531963 396.207362 40.2377362 396.207362 43.9214087L396.207362 75 406.165227 75C407.205113 75 408 74.2008675 408 73.155427L408 42.4490344C408 36.2475472 406.350337 31.332335 402.991123 27.588454 399.631909 23.844573 394.92792 22 388.819269 22 384.910167 22 381.610842 22.7991325 378.861404 24.3317154 376.111966 25.8697718 374.157415 27.834762 372.937862 30.0460601L372.937862 28.0810699C372.937862 25.3771558 370.738312 23.1658577 368.048763 23.1658577L362 23.1658577 362 75 371.957865 75C372.997751 75 373.792638 74.2008675 373.792638 73.155427L373.792638 44.9066405 373.906971 44.9066405zM343 74L353.132964 74C354.191136 74 355 73.2128964 355 72.1831924L355 27.8412262C355 25.1780127 352.761773 23 350.024931 23L343 23 343 74zM349.560751 0C347.329529 0 345.53461.685109543 344.10972 2.12773858 342.684831 3.57036762 342 5.37504642 342 7.62532492 342 9.81433346 342.679308 11.5633123 344.10972 12.9391014 345.53461 14.3148905 347.329529 15 349.560751 15 351.731222 15 353.46539 14.3148905 354.89028 12.9391014 356.315169 11.5633123 357 9.7530635 357 7.62532492 357 5.37504642 356.320692 3.56479762 354.89028 2.12773858 353.526141.69067954 351.731222 0 349.560751 0M323 75L333.132964 75C334.191136 75 335 74.204393 335 73.1635647L335 14.8935278C335 12.2015426 332.761773 10 330.024931 10L323 10 323 75zM305.61034 10L298.761574 10 298.761574 23.402568 292.820216 23.402568C291.78858 23.402568 291 24.1989762 291 25.2408526L291 32.8285498 298.756173 32.8285498 298.756173 75 308.635031 75C309.666667 75 310.455247 74.2035918 310.455247 73.1617153L310.455247 32.8885532 319 32.8885532 319 25.300856C319 24.2589795 318.21142 23.4625713 317.179784 23.4625713L310.455247 23.4625713 310.455247 14.893001C310.460648 12.2037597 308.278549 10 305.61034 10zM291 49.4406224C290.967612 35.3573243 279.594094 24 265.5 24 251.44909 24 240 35.3843141 240 49.5 240 63.5509102 251.384314 75 265.5 75 270.595682 75 275.335097 73.5155588 279.308002 70.9569221L279.308002 74.6383362 286.152625 74.6383362C288.819221 74.6383362 291 72.4575572 291 69.790961L291 49.4406224 291 49.4406224zM265.505398 63.4915326C257.813294 63.4915326 251.513865 57.2514818 251.513865 49.5 251.513865 41.8078959 257.753916 35.5084674 265.505398 35.5084674 273.197502 35.5084674 279.496931 41.7485182 279.496931 49.5 279.491533 57.1921041 273.25688 63.4915326 265.505398 63.4915326zM220.456175 30.2336616C216.537471 24.4808334 209.982649 20.7510377 202.510916 20.7510377 190.509205 20.7510377 180.772483 30.4790429 180.772483 42.470009 180.772483 54.460975 190.509205 64.1889802 202.510916 64.1889802 211.330727 64.1889802 218.922532 58.9269146 222.350033 51.4018882L198.892392 51.4018882C198.892392 43.7514446 205.076083 37.5732888 212.733382 37.5732888L213.650293 37.5732888 213.650293 37.5732888 235.634327 37.5732888C235.879928 39.1655408 236 40.8177749 236 42.529991 236 61.0099292 220.996497 76 202.5 76 184.003503 76 169 61.0099292 169 42.529991 169 24.0500529 184.003503 9 202.5 9 216.706663 9 228.773868 17.811915 233.669518 30.2336616L220.456175 30.2336616 220.456175 30.2336616z"/>
    <path fill="#F78557" fill-rule="nonzero" d="M109.218688,72.7456249 C113.004573,70.5017791 116.300199,67.4900152 118.822306,63.846489 L123.24008,63.846489 C125.484374,63.846489 127.303777,62.0220028 127.303777,59.7836032 C127.303777,57.5452037 125.478926,55.7207174 123.24008,55.7207174 L122.891451,55.7207174 C123.730338,53.1283131 124.291412,50.4651078 124.433042,47.6603006 L128.78,47.6603006 C131.024294,47.6603006 132.843698,45.8358144 132.843698,43.5974149 C132.843698,41.3535691 131.018847,39.5345291 128.78,39.5345291 L124.291412,39.5345291 C124.013598,36.7297219 123.310895,33.9957156 122.330378,31.4741123 L123.169264,31.4741123 C125.413559,31.4741123 127.232962,29.649626 127.232962,27.4112265 C127.232962,25.1673807 125.408111,23.3483407 123.169264,23.3483407 L117.700159,23.3483407 C112.089423,16.3390458 103.259324,11.6443976 93.3724453,11.6443976 L86.4325646,11.6443976 C82.0856064,11.6443976 77.8802783,12.5539177 74.0943936,14.236802 L81.3829026,14.236802 C98.209662,14.236802 112.018608,28.0429889 112.018608,44.8663859 C112.018608,60.4262581 100.312326,73.322925 85.2396024,75.2835669 C84.3299006,75.3543679 83.4147515,75.4251688 82.4342346,75.4251688 L50.888827,75.4251688 C56.0038569,72.6203616 60.4216302,68.6282768 63.7172565,63.8628277 C63.9297018,63.9336286 64.2075149,63.9336286 64.4199602,63.9336286 L91.90167,63.9336286 C94.1459642,63.9336286 95.9653678,62.1091424 95.9653678,59.8707429 C95.9653678,57.6323433 94.1405169,55.8078571 91.90167,55.8078571 L67.9933996,55.8078571 C68.9739165,53.2154528 69.6766203,50.5522475 70.0960636,47.7474403 L101.570656,47.7474403 C103.81495,47.7474403 105.634354,45.922954 105.634354,43.6845545 C105.634354,41.446155 103.809503,39.6216687 101.570656,39.6216687 L70.4446918,39.6216687 C70.2322465,36.8168615 69.671173,34.1536562 68.9031014,31.5612519 L92.0378529,31.5612519 C94.2821471,31.5612519 96.1015507,29.7367657 96.1015507,27.4983661 C96.1015507,25.2599666 94.2766998,23.4354804 92.0378529,23.4354804 L65.3351093,23.4354804 C58.814672,12.4286544 46.7597614,5 33.086998,5 L30.4232604,5 C17.9434592,5 6.7982505,11.2359306 0,20.7014741 C6.10099404,13.6213783 15.2143539,9.13913296 25.3082306,9.13913296 C39.7490656,9.13913296 52.0872366,18.3214727 56.7174553,31.1473386 L39.7545129,31.1473386 C36.3880716,26.87205 31.1314115,24.1380437 25.3136779,24.1380437 C15.1489861,24.2796456 6.94532803,32.4762181 6.94532803,42.644325 C6.94532803,52.8124319 15.2198012,61.0798054 25.384493,61.0798054 C31.414672,61.0798054 36.7421471,58.2041972 40.1085885,53.7219519 L22.5845726,53.7219519 C22.5845726,45.5907342 29.175825,39.0715997 37.2378529,39.0715997 L43.409662,39.0715997 L49.646839,39.0715997 L58.6185686,39.0715997 C58.7601988,40.2643236 58.8310139,41.4570474 58.8310139,42.644325 C58.8310139,61.0798054 43.8291054,76.0787161 25.3899404,76.0787161 C15.6446918,76.0787161 6.87996024,71.8742285 0.71359841,65.2134921 C7.58266402,74.1834289 18.3792445,80 30.5104175,80 L33.1741551,80 C33.2449702,80 33.3157853,80 33.3866004,80 C40.1848509,80 84.9127634,80 85.473837,80 C113.936064,80 137,78.3171157 137,76.1440709 C136.978211,74.7062668 125.691372,73.3773873 109.218688,72.7456249 Z"/>
  </g>
</svg>
