<?xml version="1.0" encoding="UTF-8"?>
<svg width="812px" height="224px" viewBox="0 0 812 224" version="1.1" xmlns="http://www.w3.org/2000/svg" xmlns:xlink="http://www.w3.org/1999/xlink">
    <!-- Generator: Sketch 52.2 (67145) - http://www.bohemiancoding.com/sketch -->
    <title>Original logo G FF9E2A@3x</title>
    <desc>Created with Sketch.</desc>
    <defs>
        <polygon id="path-1" points="0 0.0333323218 223.083719 0.0333323218 223.083719 106.895663 0 106.895663"></polygon>
    </defs>
    <g id="Original-logo-G-FF9E2A" stroke="none" stroke-width="1" fill="none" fill-rule="evenodd">
        <g id="Logo" transform="translate(28.130705, 61.113281)">
            <g id="Group-6-Copy" transform="translate(0.236041, 0.397154)">
                <g id="Group-3" transform="translate(0.000000, 0.137462)">
                    <mask id="mask-2" fill="white">
                        <use xlink:href="#path-1"></use>
                    </mask>
                    <g id="Clip-2"></g>
                    <path d="M197.23785,83.9341332 L203.585335,83.9341332 C206.754808,83.9341332 209.348138,81.3408035 209.348138,78.17133 C209.348138,75.0016857 206.754808,72.4083559 203.585335,72.4083559 L203.101572,72.4083559 C204.329848,68.7511923 205.093144,64.8857017 205.320426,60.8827494 L211.535059,60.8827494 C214.704874,60.8827494 217.298034,58.2894196 217.298034,55.1199462 C217.298034,51.9503019 214.704874,49.3569721 211.535059,49.3569721 L205.166742,49.3569721 C204.75948,45.3360901 203.808689,41.4697456 202.392577,37.8313656 L203.585335,37.8313656 C206.754808,37.8313656 209.348138,35.2380358 209.348138,32.0685624 C209.348138,28.8987473 206.754808,26.3055883 203.585335,26.3055883 L195.773755,26.3055883 C187.614337,16.0181614 175.01653,9.38960577 160.944723,9.38960577 L151.092734,9.38960577 C144.844119,9.38960577 138.887162,10.699163 133.478856,13.0530875 L143.911087,13.0530875 C167.958855,13.0530875 187.634145,32.7285492 187.634145,56.7763167 C187.634145,78.9423107 170.91761,97.3932535 149.468808,100.14539 C148.16369,100.267312 146.843034,100.332713 145.50735,100.332713 L100.528695,100.332713 C107.828507,96.3219062 114.10359,90.6543869 118.840468,83.8463627 C119.162863,83.9028842 119.493624,83.9341332 119.831729,83.9341332 L159.019064,83.9341332 C162.188709,83.9341332 164.781868,81.3408035 164.781868,78.17133 C164.781868,75.0016857 162.188709,72.4083559 159.019064,72.4083559 L124.895441,72.4083559 C126.298234,68.7397514 127.307424,64.8805789 127.869053,60.8827494 L172.603864,60.8827494 C175.773337,60.8827494 178.366667,58.2894196 178.366667,55.1199462 C178.366667,51.9503019 175.773337,49.3569721 172.603864,49.3569721 L128.228503,49.3569721 C127.922501,45.3803169 127.174061,41.5225104 126.036288,37.8313656 L159.019064,37.8313656 C162.188709,37.8313656 164.781868,35.2380358 164.781868,32.0685624 C164.781868,28.8987473 162.188709,26.3055883 159.019064,26.3055883 L120.914517,26.3055883 C111.580101,10.6105387 94.444009,0.0333323218 74.955017,0.0333323218 L71.1673749,0.0333323218 C41.7802886,0.0333323218 17.7362778,24.0773431 17.7362778,53.4644295 C17.7362778,82.8516866 41.7802886,106.895697 71.1673749,106.895697 L74.955017,106.895697 C75.0443244,106.895697 75.132778,106.892624 75.2220854,106.892282 C84.884019,106.894502 148.69407,106.895697 149.571605,106.895697 C190.171295,106.895697 223.083719,104.449221 223.083719,101.431382 C223.083719,99.3245473 207.043222,97.4965632 183.546155,96.5847056 C188.946264,93.3715176 193.616546,89.0470245 197.23785,83.9341332 Z" id="Fill-1" fill="#FF9E2A" mask="url(#mask-2)"></path>
                </g>
                <path d="M98.5318813,48.5864013 L89.620608,48.5864013 L80.7981298,48.5864013 C69.246397,48.5864013 59.8815856,57.9512127 59.8815856,69.5031162 L84.8391616,69.5031162 C80.0466157,75.8565778 72.4360202,79.9650597 63.864559,79.9650597 C49.3622668,79.9650597 37.605793,68.2084151 37.605793,53.7061229 C37.605793,39.2038308 49.3622668,27.447357 63.864559,27.447357 C72.2273517,27.447357 79.6712856,31.3615141 84.4800536,37.4523471 L108.713266,37.4523471 C102.066439,19.1158133 84.496105,6.01426421 63.864559,6.01426421 C37.5250236,6.01426421 16.1727003,27.3665876 16.1727003,53.7061229 C16.1727003,80.0456583 37.5250236,101.397982 63.864559,101.397982 C90.2040944,101.397982 111.556418,80.0456583 111.556418,53.7061229 C111.556418,51.9763257 111.461988,50.2687273 111.282348,48.5864013 L98.5318813,48.5864013 Z" id="Fill-4" fill="#f0f5fb"></path>
            </g>
        </g>
        <path d="M509.45218,61.3271097 L498.108972,61.3271097 L498.108972,83.2721727 L488.266807,83.2721727 C486.609952,83.2721727 485.266807,84.6153184 485.266807,86.2721727 L485.266807,98.7143958 L498.108972,98.7143958 L498.108972,167.634795 L514.45218,167.634795 C516.109034,167.634795 517.45218,166.291649 517.45218,164.634795 L517.45218,98.7143958 L531.593476,98.7143958 L531.593476,86.2721727 C531.593476,84.6153184 530.25033,83.2721727 528.593476,83.2721727 L517.45218,83.2721727 L517.45218,69.3271097 C517.45218,64.9088317 513.870458,61.3271097 509.45218,61.3271097 Z" id="Fill-1-Copy-8" fill="#667379"></path>
        <path d="M538.27133,167.635514 L554.614538,167.635514 C556.271393,167.635514 557.614538,166.292368 557.614538,164.635514 L557.614538,69.3278285 C557.614538,64.9095505 554.032816,61.3278285 549.614538,61.3278285 L538.27133,61.3278285 L538.27133,167.635514 Z" id="Fill-2-Copy-10" fill="#667379"></path>
        <path d="M571.973161,167.635514 L588.316369,167.635514 C589.973223,167.635514 591.316369,166.292368 591.316369,164.635514 L591.316369,91.2728914 C591.316369,86.8546134 587.734647,83.2728914 583.316369,83.2728914 L571.973161,83.2728914 L571.973161,167.635514 Z" id="Fill-3-Copy-8" fill="#667379"></path>
        <path d="M581.727241,45.0728851 C578.14969,45.0728851 575.224401,46.2102981 572.947778,48.4851241 C570.672952,50.7617469 569.535539,53.6888335 569.535539,57.2627899 C569.535539,60.7343253 570.672952,63.5787562 572.947778,65.7978795 C575.224401,68.0205965 578.14969,69.1292597 581.727241,69.1292597 C585.193385,69.1292597 588.066566,68.0205965 590.341392,65.7978795 C592.618015,63.5787562 593.755428,60.7343253 593.755428,57.2627899 C593.755428,53.6888335 592.618015,50.7617469 590.341392,48.4851241 C588.066566,46.2102981 585.193385,45.0728851 581.727241,45.0728851" id="Fill-5-Copy-8" fill="#667379"></path>
        <path d="M622.452055,118.707349 C622.452055,112.206306 624.212979,107.114002 627.734827,103.42864 C631.254877,99.7432784 636.106402,97.9014959 642.28401,97.9014959 C647.917169,97.9014959 652.116433,99.6067169 654.880005,103.02255 C657.643577,106.434789 659.025363,111.122799 659.025363,117.082987 L659.025363,167.634076 L675.368572,167.634076 C677.025426,167.634076 678.368572,166.29093 678.368572,164.634076 L678.368572,114.642849 C678.368572,104.566053 675.631952,96.4945537 670.160511,90.4247574 C664.687272,84.3567579 656.966161,81.3200629 646.997176,81.3200629 C640.602148,81.3200629 635.155862,82.5958342 630.660116,85.1401893 C626.162573,87.6881382 622.939005,90.8056919 620.98941,94.48746 L620.98941,91.2714539 C620.98941,86.8531759 617.407688,83.2714539 612.98941,83.2714539 L603.108847,83.2714539 L603.108847,167.634076 L619.452055,167.634076 C621.10891,167.634076 622.452055,166.29093 622.452055,164.634076 L622.452055,118.707349 Z" id="Fill-7-Copy-8" fill="#667379"></path>
        <path d="M369.701503,94.7262055 C363.317104,85.3678657 352.568676,79.2241517 340.385307,79.2241517 C320.799445,79.2241517 304.921968,95.1016294 304.921968,114.687491 C304.921968,134.273352 320.799445,150.15083 340.385307,150.15083 C354.790762,150.15083 367.190114,141.56168 372.741515,129.22523 L334.430017,129.225229 C334.430017,116.743874 344.548155,106.625737 357.029509,106.625737 L358.55159,106.625737 L358.55159,106.632202 L394.471139,106.632202 C394.85931,109.261025 395.060379,111.950777 395.060379,114.687491 C395.060379,144.883699 370.581515,169.362563 340.385307,169.362563 C310.189098,169.362563 285.710234,144.883699 285.710234,114.687491 C285.710234,84.4912819 310.189098,60.0124181 340.385307,60.0124181 C363.537209,60.0124181 383.328155,74.402385 391.302031,94.7262055 L369.701503,94.7262055 Z" id="Combined-Shape-Copy-2" fill="#667379"></path>
        <path d="M745.083589,111.16503 C740.904186,105.85808 734.420814,102.450557 727.141573,102.450557 C714.535722,102.450557 704.31666,112.669618 704.31666,125.275469 C704.31666,137.88132 714.535722,148.100382 727.141573,148.100382 C735.959798,148.100382 743.610052,143.099702 747.411224,135.779453 L723.674158,135.779453 C723.674158,127.473442 730.276062,120.709387 738.518704,120.448458 L768.962978,120.448458 C769.143806,122.032427 769.23672,123.643097 769.23672,125.275469 C769.23672,148.523977 750.390081,167.370616 727.141573,167.370616 C703.893065,167.370616 685.046426,148.523977 685.046426,125.275469 C685.046426,102.026961 703.893065,83.1803219 727.141573,83.1803219 C745.440634,83.1803219 761.012573,94.8565169 766.813513,111.16503 L745.083589,111.16503 Z" id="Combined-Shape-Copy-3" fill="#667379"></path>
        <path d="M466.58705,167.635514 L477.930259,167.635514 C482.348537,167.635514 485.930259,164.053792 485.930259,159.635514 L485.930259,126.075824 L466.58705,131.206824 L466.58705,167.635514 Z" id="Fill-4-Copy-9" fill="#667379"></path>
        <path d="M443.835111,149.152526 C431.095107,149.152526 420.766029,138.823448 420.766029,126.085175 C420.766029,113.345171 431.095107,103.017823 443.835111,103.017823 C456.575115,103.017823 466.902463,113.345171 466.902463,126.085175 C466.902463,138.823448 456.575115,149.152526 443.835111,149.152526 M443.835111,83.9900273 C420.586032,83.9900273 401.738233,102.834364 401.738233,126.085175 C401.738233,149.332523 420.586032,168.180322 443.835111,168.180322 C467.084191,168.180322 485.930259,149.332523 485.930259,126.085175 C485.930259,102.834364 467.084191,83.9900273 443.835111,83.9900273" id="Fill-12-Copy-8" fill="#667379"></path>
    </g>
</svg>